<svg width="17" height="31" viewBox="0 0 17 31" fill="none" xmlns="http://www.w3.org/2000/svg">
<path d="M1.25928 1.54999H13.2222" stroke="white" stroke-width="4" stroke-linecap="square"/>
<path fill-rule="evenodd" clip-rule="evenodd" d="M6.93601 30.6181C5.82786 30.6181 4.70965 30.5834 3.58135 30.514C2.45304 30.4445 1.46579 30.3007 0.619568 30.0824V10.054C1.06283 9.97459 1.53631 9.9002 2.04001 9.83075C2.54372 9.76131 3.05749 9.70676 3.58135 9.66707C4.1052 9.62739 4.62401 9.59764 5.13779 9.57779C5.65157 9.55795 6.14016 9.54803 6.60357 9.54803C7.87291 9.54803 9.05156 9.64227 10.1396 9.83075C11.2276 10.0192 12.1695 10.3317 12.9653 10.7682C13.7612 11.2047 14.3808 11.78 14.824 12.4943C15.2673 13.2085 15.4889 14.0914 15.4889 15.1429C15.4889 16.1151 15.2522 16.9484 14.7787 17.6428C14.3052 18.3372 13.6453 18.8927 12.7991 19.3093C14.0685 19.726 15.0053 20.341 15.6098 21.1544C16.2142 21.9679 16.5165 22.9995 16.5165 24.2495C16.5165 26.3724 15.7307 27.9645 14.1591 29.026C12.5876 30.0874 10.1799 30.6181 6.93601 30.6181ZM4.36712 21.0949V27.3743C4.79024 27.414 5.24357 27.4437 5.72712 27.4636C6.21068 27.4834 6.65394 27.4933 7.0569 27.4933C7.84268 27.4933 8.57305 27.4437 9.24801 27.3445C9.92298 27.2453 10.5073 27.0717 11.0009 26.8237C11.4945 26.5757 11.8874 26.2434 12.1796 25.8268C12.4717 25.4101 12.6178 24.8744 12.6178 24.2197C12.6178 23.0491 12.1846 22.2357 11.3182 21.7794C10.4519 21.3231 9.25306 21.0949 7.72179 21.0949H4.36712ZM4.36712 18.1487H7.0569C8.50758 18.1487 9.64593 17.9453 10.472 17.5386C11.2981 17.1319 11.7111 16.4028 11.7111 15.3512C11.7111 14.3592 11.283 13.6549 10.4267 13.2383C9.57038 12.8216 8.4572 12.6133 7.08712 12.6133C6.50282 12.6133 5.98401 12.6232 5.53068 12.6431C5.07734 12.6629 4.6895 12.6927 4.36712 12.7324V18.1487Z" fill="white"/>
</svg>
